<svg width="16" height="16" viewBox="0 0 16 16" fill="none" xmlns="http://www.w3.org/2000/svg">
<path d="M6.66669 8H9.33335" stroke="#FF5E00" stroke-width="1.33333" stroke-linecap="round" stroke-linejoin="round"/>
<path d="M6.66669 5.33333H9.33335" stroke="#FF5E00" stroke-width="1.33333" stroke-linecap="round" stroke-linejoin="round"/>
<path d="M9.33335 14V12C9.33335 11.6464 9.19288 11.3072 8.94283 11.0572C8.69278 10.8071 8.35364 10.6667 8.00002 10.6667C7.6464 10.6667 7.30726 10.8071 7.05721 11.0572C6.80716 11.3072 6.66669 11.6464 6.66669 12V14" stroke="#FF5E00" stroke-width="1.33333" stroke-linecap="round" stroke-linejoin="round"/>
<path d="M3.99998 6.66667H2.66665C2.31302 6.66667 1.97389 6.80715 1.72384 7.0572C1.47379 7.30724 1.33331 7.64638 1.33331 8.00001V12.6667C1.33331 13.0203 1.47379 13.3594 1.72384 13.6095C1.97389 13.8595 2.31302 14 2.66665 14H13.3333C13.6869 14 14.0261 13.8595 14.2761 13.6095C14.5262 13.3594 14.6666 13.0203 14.6666 12.6667V6.00001C14.6666 5.64638 14.5262 5.30724 14.2761 5.0572C14.0261 4.80715 13.6869 4.66667 13.3333 4.66667H12" stroke="#FF5E00" stroke-width="1.33333" stroke-linecap="round" stroke-linejoin="round"/>
<path d="M4 14V3.33333C4 2.97971 4.14048 2.64057 4.39052 2.39052C4.64057 2.14048 4.97971 2 5.33333 2H10.6667C11.0203 2 11.3594 2.14048 11.6095 2.39052C11.8595 2.64057 12 2.97971 12 3.33333V14" stroke="#FF5E00" stroke-width="1.33333" stroke-linecap="round" stroke-linejoin="round"/>
</svg>
