<svg width="16" height="16" viewBox="0 0 16 16" fill="none" xmlns="http://www.w3.org/2000/svg">
<path d="M14.6667 8.00001H13.0133C12.722 7.99939 12.4384 8.09421 12.2061 8.26999C11.9737 8.44576 11.8053 8.69281 11.7267 8.97334L10.16 14.5467C10.1499 14.5813 10.1288 14.6117 10.1 14.6333C10.0711 14.655 10.0361 14.6667 10 14.6667C9.96393 14.6667 9.92884 14.655 9.9 14.6333C9.87115 14.6117 9.85009 14.5813 9.84 14.5467L6.15999 1.45334C6.1499 1.41872 6.12884 1.38831 6.09999 1.36668C6.07115 1.34504 6.03606 1.33334 6 1.33334C5.96393 1.33334 5.92884 1.34504 5.9 1.36668C5.87115 1.38831 5.85009 1.41872 5.84 1.45334L4.27333 7.02668C4.19497 7.30611 4.02758 7.55235 3.79657 7.72802C3.56556 7.90368 3.28354 7.99918 2.99333 8.00001H1.33333" stroke="#FF5E00" stroke-width="1.33333" stroke-linecap="round" stroke-linejoin="round"/>
</svg>
