<svg width="20" height="20" viewBox="0 0 20 20" fill="none" xmlns="http://www.w3.org/2000/svg">
<path d="M8.41667 1.8183C9.46252 1.6159 10.5375 1.6159 11.5833 1.8183" stroke="#78726D" stroke-width="1.66667" stroke-linecap="round" stroke-linejoin="round"/>
<path d="M11.5833 18.1816C10.5375 18.384 9.46252 18.384 8.41667 18.1816" stroke="#78726D" stroke-width="1.66667" stroke-linecap="round" stroke-linejoin="round"/>
<path d="M14.6742 3.10083C15.5587 3.70018 16.3198 4.46405 16.9158 5.35083" stroke="#78726D" stroke-width="1.66667" stroke-linecap="round" stroke-linejoin="round"/>
<path d="M1.81833 11.5834C1.61593 10.5375 1.61593 9.46254 1.81833 8.41669" stroke="#78726D" stroke-width="1.66667" stroke-linecap="round" stroke-linejoin="round"/>
<path d="M16.8992 14.6742C16.2998 15.5588 15.5359 16.3198 14.6492 16.9159" stroke="#78726D" stroke-width="1.66667" stroke-linecap="round" stroke-linejoin="round"/>
<path d="M18.1817 8.41669C18.3841 9.46254 18.3841 10.5375 18.1817 11.5834" stroke="#78726D" stroke-width="1.66667" stroke-linecap="round" stroke-linejoin="round"/>
<path d="M3.10083 5.32583C3.70018 4.44128 4.46405 3.68023 5.35083 3.08417" stroke="#78726D" stroke-width="1.66667" stroke-linecap="round" stroke-linejoin="round"/>
<path d="M5.32583 16.8992C4.44128 16.2998 3.68023 15.5359 3.08417 14.6492" stroke="#78726D" stroke-width="1.66667" stroke-linecap="round" stroke-linejoin="round"/>
</svg>
