<svg width="16" height="16" viewBox="0 0 16 16" fill="none" xmlns="http://www.w3.org/2000/svg">
<path d="M8.00004 14.6666C11.6819 14.6666 14.6667 11.6818 14.6667 7.99992C14.6667 4.31802 11.6819 1.33325 8.00004 1.33325C4.31814 1.33325 1.33337 4.31802 1.33337 7.99992C1.33337 11.6818 4.31814 14.6666 8.00004 14.6666Z" stroke="#3F3F46" stroke-opacity="0.7" stroke-width="1.33333" stroke-linecap="round" stroke-linejoin="round"/>
<path d="M8 8.66675C9.10457 8.66675 10 7.77132 10 6.66675C10 5.56218 9.10457 4.66675 8 4.66675C6.89543 4.66675 6 5.56218 6 6.66675C6 7.77132 6.89543 8.66675 8 8.66675Z" stroke="#3F3F46" stroke-opacity="0.7" stroke-width="1.33333" stroke-linecap="round" stroke-linejoin="round"/>
<path d="M4.66663 13.7746V12.6666C4.66663 12.313 4.8071 11.9738 5.05715 11.7238C5.3072 11.4737 5.64634 11.3333 5.99996 11.3333H9.99996C10.3536 11.3333 10.6927 11.4737 10.9428 11.7238C11.1928 11.9738 11.3333 12.313 11.3333 12.6666V13.7746" stroke="#3F3F46" stroke-opacity="0.7" stroke-width="1.33333" stroke-linecap="round" stroke-linejoin="round"/>
</svg>
