<svg width="20" height="20" viewBox="0 0 20 20" fill="none" xmlns="http://www.w3.org/2000/svg">
<path d="M10 13.3333H10.0083" stroke="#EF4444" stroke-width="1.66667" stroke-linecap="round" stroke-linejoin="round"/>
<path d="M10 6.66669V10" stroke="#EF4444" stroke-width="1.66667" stroke-linecap="round" stroke-linejoin="round"/>
<path d="M12.76 1.66669C13.202 1.66678 13.6259 1.84244 13.9384 2.15502L17.845 6.06169C18.1576 6.37417 18.3333 6.79803 18.3334 7.24002V12.76C18.3333 13.202 18.1576 13.6259 17.845 13.9384L13.9384 17.845C13.6259 18.1576 13.202 18.3333 12.76 18.3334H7.24002C6.79803 18.3333 6.37417 18.1576 6.06169 17.845L2.15502 13.9384C1.84244 13.6259 1.66678 13.202 1.66669 12.76V7.24002C1.66678 6.79803 1.84244 6.37417 2.15502 6.06169L6.06169 2.15502C6.37417 1.84244 6.79803 1.66678 7.24002 1.66669H12.76Z" stroke="#EF4444" stroke-width="1.66667" stroke-linecap="round" stroke-linejoin="round"/>
</svg>
