<svg width="20" height="20" viewBox="0 0 20 20" fill="none" xmlns="http://www.w3.org/2000/svg">
<path d="M18.3334 10.0001H16.2667C15.9025 9.9993 15.5481 10.1178 15.2576 10.3376C14.9672 10.5573 14.7567 10.8661 14.6584 11.2167L12.7 18.1834C12.6874 18.2267 12.6611 18.2647 12.625 18.2917C12.589 18.3188 12.5451 18.3334 12.5 18.3334C12.4549 18.3334 12.4111 18.3188 12.375 18.2917C12.339 18.2647 12.3126 18.2267 12.3 18.1834L7.70002 1.81675C7.6874 1.77347 7.66108 1.73546 7.62502 1.70841C7.58896 1.68137 7.5451 1.66675 7.50002 1.66675C7.45494 1.66675 7.41108 1.68137 7.37502 1.70841C7.33896 1.73546 7.31264 1.77347 7.30002 1.81675L5.34169 8.78341C5.24374 9.13271 5.0345 9.44051 4.74574 9.66009C4.45698 9.87967 4.10445 9.99904 3.74169 10.0001H1.66669" stroke="#FF5E00" stroke-width="1.66667" stroke-linecap="round" stroke-linejoin="round"/>
</svg>
